<svg xmlns="http://www.w3.org/2000/svg" version="1.1" xmlns:xlink="http://www.w3.org/1999/xlink" xmlns:svgjs="http://svgjs.com/svgjs" width="1920" height="1080" preserveAspectRatio="none" viewBox="0 0 1920 1080">
    <g mask="url(&quot;#SvgjsMask1176&quot;)" fill="none">
        <rect width="1920" height="1080" x="0" y="0" fill="rgba(9, 9, 9, 1)"></rect>
        <path d="M0,735.991C135.189,743.718,212.793,581.293,330.049,513.566C455.437,441.141,652.556,457.194,711.592,324.973C770.737,192.506,635.642,54.088,597.723,-85.94C565.379,-205.381,576.297,-336.458,505.078,-437.652C430.178,-544.076,318.373,-622.368,193.768,-659.915C68.681,-697.607,-62.243,-674.378,-190.005,-647.098C-326.873,-617.873,-474.848,-596.307,-572.706,-496.253C-672.563,-394.155,-717.69,-246.493,-721.448,-103.729C-724.993,30.934,-671.18,161.137,-592.899,270.768C-523.129,368.479,-401.117,403.057,-306.66,477.173C-199.252,561.452,-136.304,728.2,0,735.991" fill="#070707"></path>
        <path d="M1920 2018.563C2091.018 2045.239 2223.219 1871.884 2366.652 1775.004 2506.5789999999997 1680.492 2667.6059999999998 1606.533 2749.026 1458.604 2833.195 1305.681 2866.15 1119.001 2820.437 950.537 2776.602 788.994 2622.449 692.6410000000001 2508.0299999999997 570.469 2398.579 453.602 2316.954 296.389 2163.863 249.47799999999995 2010.316 202.42700000000002 1852.331 279.60900000000004 1697.456 322.08500000000004 1539.647 365.366 1370.367 388.462 1250.5900000000001 499.953 1124.681 617.1510000000001 1021.532 778.864 1021.929 950.877 1022.315 1118.07 1151.138 1251.915 1252.632 1384.777 1335.437 1493.173 1455.83 1554.425 1554.739 1648.357 1683.04 1770.202 1745.175 1991.2930000000001 1920 2018.563" fill="#0b0b0b"></path>
    </g>
    <defs>
        <mask id="SvgjsMask1176">
            <rect width="1920" height="1080" fill="#ffffff"></rect>
        </mask>
    </defs>
</svg>